<svg width="77" height="112" viewBox="0 0 77 112" fill="none" xmlns="http://www.w3.org/2000/svg">
<circle cx="37.7109" cy="87.5" r="24.5" fill="#5A3560" fill-opacity="0.14"/>
<circle cx="37.7117" cy="87.5" r="14.7" fill="#5A3560" fill-opacity="0.3"/>
<circle cx="37.7116" cy="87.5" r="6.86" fill="#5A3560"/>
<mask id="path-4-inside-1_726_230" fill="white">
<path fill-rule="evenodd" clip-rule="evenodd" d="M46.8671 74.359C63.7998 70.4928 76.4201 55.5316 76.4201 37.6649C76.4201 16.8631 59.3129 0 38.21 0C17.1072 0 0 16.8631 0 37.6649C0 55.5313 12.6198 70.4922 29.552 74.3587L37.3467 87.667C37.733 88.3265 38.6862 88.3265 39.0725 87.667L46.8671 74.359Z"/>
</mask>
<path fill-rule="evenodd" clip-rule="evenodd" d="M46.8671 74.359C63.7998 70.4928 76.4201 55.5316 76.4201 37.6649C76.4201 16.8631 59.3129 0 38.21 0C17.1072 0 0 16.8631 0 37.6649C0 55.5313 12.6198 70.4922 29.552 74.3587L37.3467 87.667C37.733 88.3265 38.6862 88.3265 39.0725 87.667L46.8671 74.359Z" fill="#F4F1EA"/>
<path d="M46.8671 74.359L46.4219 72.4091L45.5785 72.6017L45.1413 73.3482L46.8671 74.359ZM29.552 74.3587L31.2777 73.3479L30.8406 72.6015L29.9972 72.4089L29.552 74.3587ZM37.3467 87.667L39.0725 86.6562H39.0725L37.3467 87.667ZM39.0725 87.667L40.7982 88.6778V88.6778L39.0725 87.667ZM74.4201 37.6649C74.4201 54.5595 62.4835 68.7418 46.4219 72.4091L47.3123 76.3088C65.116 72.2437 78.4201 56.5037 78.4201 37.6649H74.4201ZM38.21 2C58.2355 2 74.4201 17.9947 74.4201 37.6649H78.4201C78.4201 15.7316 60.3902 -2 38.21 -2V2ZM2 37.6649C2 17.9947 18.1846 2 38.21 2V-2C16.0298 -2 -2 15.7316 -2 37.6649H2ZM29.9972 72.4089C13.9361 68.7412 2 54.5592 2 37.6649H-2C-2 56.5033 11.3035 72.2431 29.1067 76.3085L29.9972 72.4089ZM39.0725 86.6562L31.2777 73.3479L27.8262 75.3695L35.6209 88.6778L39.0725 86.6562ZM37.3467 86.6562C37.733 85.9967 38.6862 85.9967 39.0725 86.6562L35.6209 88.6778C36.7797 90.6562 39.6395 90.6562 40.7982 88.6778L37.3467 86.6562ZM45.1413 73.3482L37.3467 86.6562L40.7982 88.6778L48.5928 75.3698L45.1413 73.3482Z" fill="#5A3560" mask="url(#path-4-inside-1_726_230)"/>
<path d="M50.6457 35.2637C50.6457 28.4341 45.1457 22.9341 38.316 22.9341C31.4863 22.9341 25.9863 28.4341 25.9863 35.2637C25.9863 42.0934 38.316 54.8461 38.316 54.8461C38.316 54.8461 50.6457 42.0934 50.6457 35.2637ZM32.5742 35.022C32.5742 31.8791 35.1731 29.2802 38.316 29.2802C41.4589 29.2802 44.0578 31.8187 44.0578 35.022C44.0578 38.1648 41.5193 40.7637 38.316 40.7637C35.1731 40.7637 32.5742 38.1648 32.5742 35.022Z" fill="#5A3560"/>
</svg>
